<svg width="16" height="13" viewBox="0 0 16 13" fill="none" xmlns="http://www.w3.org/2000/svg">
<mask id="mask0_21373_81" style="mask-type:luminance" maskUnits="userSpaceOnUse" x="0" y="0" width="16" height="13">
<path d="M0 -4.19784e-07H15.3389V12.7253H0V-4.19784e-07Z" fill="white"/>
</mask>
<g mask="url(#mask0_21373_81)">
<g opacity="0.979996">
<path d="M15.3325 5.87948C15.3252 5.67578 15.2945 5.48674 15.245 5.31134C15.245 5.311 15.2448 5.31083 15.2448 5.31049C15.2259 5.22601 15.1782 4.95292 15.0886 4.81912C14.9835 4.66203 14.7735 4.38283 14.6859 4.27818C14.5984 4.17345 14.4758 4.05135 14.1431 3.80706C13.8208 3.5704 13.4057 3.45126 13.38 3.44406H13.3798C13.3791 3.44389 13.3787 3.44372 13.3787 3.44372C13.1257 3.3373 12.9526 3.29222 12.9526 3.29222C13.3744 2.45852 13.3276 1.81599 13.1205 1.34563C13.1131 1.27454 12.9701 0.980173 12.865 0.858072C12.76 0.735886 12.5499 0.56142 12.4624 0.474144C12.3748 0.386868 12.2522 0.282221 11.9547 0.17749C11.6682 0.0768266 11.2192 0.0438648 11.1857 0.041577C11.1845 0.0414075 11.1837 0.0414076 11.1837 0.0414076C9.92431 -0.135347 9.03076 0.482871 9.03076 0.482871C7.53374 1.39901 8.07651 3.21376 8.26907 4.33055C8.42755 5.24974 7.91599 5.41234 7.73005 5.44098C7.68975 5.44725 7.64911 5.44725 7.6089 5.44098C7.42296 5.41234 6.91132 5.24974 7.06979 4.33055C7.26236 3.21376 7.80512 1.39901 6.30819 0.482871C6.30819 0.482871 5.6078 -0.0017219 4.57329 0.00963243C4.30097 -0.0355307 3.67302 0.090299 3.56811 0.14258C3.46311 0.194945 3.27046 0.229855 2.83278 0.509053C2.4019 0.783845 2.22141 1.33411 2.21596 1.35114C2.21579 1.35131 2.21579 1.35148 2.21579 1.35148C2.0109 1.82141 1.96626 2.462 2.38634 3.29222C2.38634 3.29222 2.15679 3.35196 1.84018 3.49609C1.63571 3.55159 1.3446 3.70233 1.27455 3.7547C1.20449 3.80706 1.08189 3.91171 0.71427 4.20836C0.352343 4.50027 0.218948 4.9669 0.214952 4.98139C0.214782 4.98156 0.214782 4.98173 0.214782 4.98173C0.089719 5.25567 0.0113317 5.56927 0.00521028 5.9271C0.00521028 5.9271 -0.0451218 6.28815 0.167086 6.73614C0.167086 6.73614 0.167257 6.73648 0.167512 6.73699C0.173973 6.75478 0.281947 7.0411 0.451645 7.22717C0.6267 7.41909 0.696756 7.48891 0.766811 7.5412C0.82947 7.58797 0.964141 7.65067 1.07543 7.69202C1.0756 7.69202 1.07577 7.69219 1.07594 7.69219C1.205 7.77065 1.34928 7.8459 1.5109 7.9164C1.5109 7.9164 1.20381 8.19856 1.14991 8.88778V8.88795C1.14897 8.89253 1.13443 8.97404 1.13443 9.04191V9.2862C1.13443 9.39085 1.17405 9.64412 1.19803 9.7008C1.23603 9.91442 1.29504 10.1496 1.38116 10.4078C1.38116 10.4078 1.45555 10.7333 1.60144 10.9783C1.6091 10.9959 1.61683 11.0133 1.62466 11.0311C1.62466 11.0311 1.73867 11.3041 2.03844 11.629L2.03861 11.6292C2.04329 11.6366 2.2004 11.8797 2.4348 12.0349C2.44271 12.0401 2.45113 12.045 2.45946 12.0494C2.4819 12.0608 2.53096 12.087 2.57015 12.113C2.6227 12.1479 2.71316 12.226 2.78024 12.2526C2.86781 12.2875 3.02365 12.3764 3.20831 12.4192V12.4191C3.60433 12.5757 4.0897 12.6847 4.6799 12.6976C7.06104 12.75 7.3762 11.2492 7.20106 10.3943C7.02601 9.53922 6.95595 8.71908 6.93844 8.45734C6.92101 8.19644 6.86881 7.21006 7.6651 7.21929C7.66807 7.21929 7.67105 7.21912 7.67385 7.21929C8.47014 7.21006 8.41794 8.19644 8.40043 8.45734C8.38291 8.71908 8.31286 9.53922 8.1378 10.3943C7.9869 11.1308 8.19995 12.3463 9.78395 12.6356C9.78395 12.6356 9.78463 12.6358 9.78624 12.6362C9.78624 12.6362 9.78641 12.6363 9.78658 12.6362C9.82127 12.645 10.2089 12.7403 10.6765 12.7238C11.1668 12.7063 11.386 12.6524 11.4689 12.6356C11.5519 12.619 12.0474 12.5024 12.2111 12.3863V12.3861C12.7488 12.1582 13.1138 11.8436 13.3493 11.5747L13.3495 11.5745C13.3496 11.5744 13.3498 11.5744 13.35 11.574C13.367 11.5613 13.6419 11.3464 13.8455 10.8392C14.0556 10.3157 14.1223 9.87214 14.1328 9.74495V9.74427C14.3813 8.42505 13.8281 7.9164 13.8281 7.9164C13.9228 7.87505 14.0117 7.83209 14.095 7.7876V7.78777C14.095 7.78777 14.3533 7.69829 14.4758 7.61102C14.5984 7.52382 14.6684 7.43655 14.7209 7.38418L15.0361 7.07008C15.1061 7.00025 15.1654 6.8579 15.1936 6.77342C15.2287 6.66878 15.2987 6.4594 15.3111 6.31188V6.31171C15.3441 6.13843 15.3403 6.00878 15.3364 5.95472C15.3345 5.92973 15.3333 5.90456 15.3325 5.87948Z" fill="#F9709A"/>
</g>
</g>
</svg>
