<svg width="32" height="32" viewBox="0 0 32 32" fill="none" xmlns="http://www.w3.org/2000/svg">
<path d="M20.6347 17.1868L22.6547 28.5548C22.6773 28.6886 22.6585 28.8262 22.6009 28.9491C22.5432 29.072 22.4494 29.1744 22.3319 29.2425C22.2145 29.3106 22.0791 29.3413 21.9438 29.3304C21.8084 29.3195 21.6797 29.2675 21.5747 29.1814L16.8014 25.5988C16.5709 25.4266 16.291 25.3336 16.0034 25.3336C15.7157 25.3336 15.4358 25.4266 15.2054 25.5988L10.424 29.1801C10.3191 29.266 10.1905 29.3179 10.0554 29.3288C9.9202 29.3398 9.78492 29.3092 9.66758 29.2413C9.55023 29.1733 9.45639 29.0712 9.39858 28.9485C9.34077 28.8259 9.32174 28.6885 9.34403 28.5548L11.3627 17.1868" stroke="white" stroke-width="2.66667" stroke-linecap="round" stroke-linejoin="round"/>
<path d="M16 18.6667C20.4183 18.6667 24 15.085 24 10.6667C24 6.24847 20.4183 2.66675 16 2.66675C11.5817 2.66675 8 6.24847 8 10.6667C8 15.085 11.5817 18.6667 16 18.6667Z" stroke="white" stroke-width="2.66667" stroke-linecap="round" stroke-linejoin="round"/>
</svg>
