<svg width="32" height="32" viewBox="0 0 32 32" fill="none" xmlns="http://www.w3.org/2000/svg">
<path d="M16 24V6.66663" stroke="white" stroke-width="2.66667" stroke-linecap="round" stroke-linejoin="round"/>
<path d="M20 17.3333C18.8464 16.9961 17.8331 16.2942 17.112 15.3327C16.3909 14.3712 16.0007 13.2019 16 12C15.9993 13.2019 15.6091 14.3712 14.888 15.3327C14.1669 16.2942 13.1536 16.9961 12 17.3333" stroke="white" stroke-width="2.66667" stroke-linecap="round" stroke-linejoin="round"/>
<path d="M23.464 8.66656C23.7708 8.13521 23.9513 7.5404 23.9914 6.92815C24.0316 6.3159 23.9303 5.70262 23.6956 5.13575C23.4608 4.56888 23.0987 4.06362 22.6374 3.65906C22.1761 3.2545 21.6279 2.96149 21.0353 2.80268C20.4426 2.64388 19.8214 2.62354 19.2196 2.74325C18.6178 2.86295 18.0517 3.11949 17.5649 3.49302C17.0781 3.86654 16.6838 4.34704 16.4125 4.89734C16.1411 5.44764 16 6.05299 16 6.66656C16 6.05299 15.8589 5.44764 15.5875 4.89734C15.3162 4.34704 14.9219 3.86654 14.4351 3.49302C13.9483 3.11949 13.3822 2.86295 12.7804 2.74325C12.1786 2.62354 11.5574 2.64388 10.9647 2.80268C10.3721 2.96149 9.82387 3.2545 9.36257 3.65906C8.90127 4.06362 8.53923 4.56888 8.30444 5.13575C8.06965 5.70262 7.96842 6.3159 8.00858 6.92815C8.04873 7.5404 8.22919 8.13521 8.536 8.66656" stroke="white" stroke-width="2.66667" stroke-linecap="round" stroke-linejoin="round"/>
<path d="M23.9961 6.83337C24.7798 7.03489 25.5074 7.41211 26.1238 7.93646C26.7401 8.46081 27.2291 9.11854 27.5536 9.85984C27.8782 10.6011 28.0297 11.4066 27.9969 12.2151C27.9641 13.0237 27.7477 13.8142 27.3641 14.5267" stroke="white" stroke-width="2.66667" stroke-linecap="round" stroke-linejoin="round"/>
<path d="M24 23.9999C25.174 23.9998 26.3152 23.6124 27.2466 22.8977C28.178 22.183 28.8475 21.1809 29.1514 20.0469C29.4552 18.9129 29.3764 17.7103 28.9272 16.6257C28.4779 15.541 27.6834 14.6349 26.6667 14.0479" stroke="white" stroke-width="2.66667" stroke-linecap="round" stroke-linejoin="round"/>
<path d="M26.6223 23.3105C26.7158 24.0335 26.66 24.768 26.4585 25.4686C26.257 26.1692 25.9139 26.821 25.4506 27.3838C24.9873 27.9466 24.4135 28.4085 23.7647 28.7409C23.1159 29.0733 22.4058 29.2691 21.6784 29.3163C20.9509 29.3635 20.2215 29.2611 19.5352 29.0154C18.8488 28.7696 18.2202 28.3858 17.688 27.8876C17.1558 27.3893 16.7314 26.7873 16.4411 26.1186C16.1507 25.45 16.0004 24.7289 15.9997 23.9999C15.9989 24.7289 15.8487 25.45 15.5583 26.1186C15.2679 26.7873 14.8435 27.3893 14.3114 27.8876C13.7792 28.3858 13.1505 28.7696 12.4642 29.0154C11.7779 29.2611 11.0484 29.3635 10.321 29.3163C9.59351 29.2691 8.88344 29.0733 8.23463 28.7409C7.58582 28.4085 7.01204 27.9466 6.54872 27.3838C6.0854 26.821 5.74238 26.1692 5.54085 25.4686C5.33932 24.768 5.28356 24.0335 5.37701 23.3105" stroke="white" stroke-width="2.66667" stroke-linecap="round" stroke-linejoin="round"/>
<path d="M8.00009 23.9999C6.82609 23.9998 5.6849 23.6124 4.75351 22.8977C3.82213 22.183 3.15259 21.1809 2.84873 20.0469C2.54487 18.9129 2.62367 17.7103 3.07291 16.6257C3.52216 15.541 4.31674 14.6349 5.33343 14.0479" stroke="white" stroke-width="2.66667" stroke-linecap="round" stroke-linejoin="round"/>
<path d="M8.00423 6.83337C7.2205 7.03489 6.4929 7.41211 5.87654 7.93646C5.26018 8.46081 4.77122 9.11854 4.44669 9.85984C4.12216 10.6011 3.97058 11.4066 4.00342 12.2151C4.03626 13.0237 4.25266 13.8142 4.63623 14.5267" stroke="white" stroke-width="2.66667" stroke-linecap="round" stroke-linejoin="round"/>
</svg>
