<svg width="40" height="40" viewBox="0 0 40 40" fill="none" xmlns="http://www.w3.org/2000/svg">
<path d="M36.6663 28.3333C36.6663 29.2174 36.3152 30.0652 35.69 30.6904C35.0649 31.3155 34.2171 31.6667 33.333 31.6667H11.3797C10.4957 31.6669 9.64798 32.0182 9.02301 32.6433L5.35301 36.3133C5.18752 36.4788 4.97668 36.5915 4.74716 36.6371C4.51763 36.6828 4.27973 36.6593 4.06352 36.5698C3.84731 36.4802 3.66251 36.3286 3.53248 36.134C3.40246 35.9394 3.33304 35.7107 3.33301 35.4767V8.33333C3.33301 7.44928 3.6842 6.60143 4.30932 5.97631C4.93444 5.35119 5.78229 5 6.66634 5H33.333C34.2171 5 35.0649 5.35119 35.69 5.97631C36.3152 6.60143 36.6663 7.44928 36.6663 8.33333V28.3333Z" stroke="white" stroke-width="3.33333" stroke-linecap="round" stroke-linejoin="round"/>
</svg>
