<svg width="32" height="32" viewBox="0 0 32 32" fill="none" xmlns="http://www.w3.org/2000/svg">
<path d="M17.1063 2.90674C16.7589 2.74827 16.3815 2.66626 15.9996 2.66626C15.6178 2.66626 15.2404 2.74827 14.893 2.90674L3.46629 8.10674C3.22969 8.21106 3.02853 8.38193 2.88731 8.59854C2.74609 8.81515 2.6709 9.06816 2.6709 9.32674C2.6709 9.58532 2.74609 9.83832 2.88731 10.0549C3.02853 10.2715 3.22969 10.4424 3.46629 10.5467L14.9063 15.7601C15.2537 15.9185 15.6311 16.0005 16.013 16.0005C16.3948 16.0005 16.7722 15.9185 17.1196 15.7601L28.5596 10.5601C28.7962 10.4557 28.9974 10.2849 29.1386 10.0683C29.2798 9.85165 29.355 9.59865 29.355 9.34007C29.355 9.08149 29.2798 8.82849 29.1386 8.61188C28.9974 8.39527 28.7962 8.22439 28.5596 8.12007L17.1063 2.90674Z" stroke="white" stroke-width="2.66667" stroke-linecap="round" stroke-linejoin="round"/>
<path d="M2.667 16C2.66637 16.255 2.73888 16.5049 2.87595 16.7199C3.01302 16.935 3.20889 17.1062 3.44033 17.2133L14.907 22.4267C15.2526 22.5832 15.6276 22.6641 16.007 22.6641C16.3864 22.6641 16.7614 22.5832 17.107 22.4267L28.547 17.2267C28.783 17.1206 28.9831 16.9481 29.1227 16.7303C29.2624 16.5125 29.3357 16.2587 29.3337 16" stroke="white" stroke-width="2.66667" stroke-linecap="round" stroke-linejoin="round"/>
<path d="M2.667 22.6667C2.66637 22.9218 2.73888 23.1716 2.87595 23.3867C3.01302 23.6017 3.20889 23.773 3.44033 23.8801L14.907 29.0934C15.2526 29.2499 15.6276 29.3309 16.007 29.3309C16.3864 29.3309 16.7614 29.2499 17.107 29.0934L28.547 23.8934C28.783 23.7873 28.9831 23.6149 29.1227 23.3971C29.2624 23.1792 29.3357 22.9255 29.3337 22.6667" stroke="white" stroke-width="2.66667" stroke-linecap="round" stroke-linejoin="round"/>
</svg>
