<svg width="16" height="16" viewBox="0 0 16 16" fill="none" xmlns="http://www.w3.org/2000/svg">
<path d="M10.6663 2C10.3127 2 9.97358 2.14048 9.72353 2.39052C9.47348 2.64057 9.33301 2.97971 9.33301 3.33333V7.33333C9.33301 7.68696 9.47348 8.02609 9.72353 8.27614C9.97358 8.52619 10.3127 8.66667 10.6663 8.66667C10.8432 8.66667 11.0127 8.7369 11.1377 8.86193C11.2628 8.98695 11.333 9.15652 11.333 9.33333V10C11.333 10.3536 11.1925 10.6928 10.9425 10.9428C10.6924 11.1929 10.3533 11.3333 9.99967 11.3333C9.82286 11.3333 9.65329 11.4036 9.52827 11.5286C9.40325 11.6536 9.33301 11.8232 9.33301 12V13.3333C9.33301 13.5101 9.40325 13.6797 9.52827 13.8047C9.65329 13.9298 9.82286 14 9.99967 14C11.0605 14 12.078 13.5786 12.8281 12.8284C13.5782 12.0783 13.9997 11.0609 13.9997 10V3.33333C13.9997 2.97971 13.8592 2.64057 13.6091 2.39052C13.3591 2.14048 13.02 2 12.6663 2H10.6663Z" stroke="url(#paint0_linear_21347_14909)" stroke-width="1.25" stroke-linecap="round" stroke-linejoin="round"/>
<path d="M3.33333 2C2.97971 2 2.64057 2.14048 2.39052 2.39052C2.14048 2.64057 2 2.97971 2 3.33333V7.33333C2 7.68696 2.14048 8.02609 2.39052 8.27614C2.64057 8.52619 2.97971 8.66667 3.33333 8.66667C3.51014 8.66667 3.67971 8.7369 3.80474 8.86193C3.92976 8.98695 4 9.15652 4 9.33333V10C4 10.3536 3.85952 10.6928 3.60948 10.9428C3.35943 11.1929 3.02029 11.3333 2.66667 11.3333C2.48986 11.3333 2.32029 11.4036 2.19526 11.5286C2.07024 11.6536 2 11.8232 2 12V13.3333C2 13.5101 2.07024 13.6797 2.19526 13.8047C2.32029 13.9298 2.48986 14 2.66667 14C3.72753 14 4.74495 13.5786 5.49509 12.8284C6.24524 12.0783 6.66667 11.0609 6.66667 10V3.33333C6.66667 2.97971 6.52619 2.64057 6.27614 2.39052C6.02609 2.14048 5.68696 2 5.33333 2H3.33333Z" stroke="#4F39F6" stroke-width="1.25" stroke-linecap="round" stroke-linejoin="round"/>
<path d="M3.33333 2C2.97971 2 2.64057 2.14048 2.39052 2.39052C2.14048 2.64057 2 2.97971 2 3.33333V7.33333C2 7.68696 2.14048 8.02609 2.39052 8.27614C2.64057 8.52619 2.97971 8.66667 3.33333 8.66667C3.51014 8.66667 3.67971 8.7369 3.80474 8.86193C3.92976 8.98695 4 9.15652 4 9.33333V10C4 10.3536 3.85952 10.6928 3.60948 10.9428C3.35943 11.1929 3.02029 11.3333 2.66667 11.3333C2.48986 11.3333 2.32029 11.4036 2.19526 11.5286C2.07024 11.6536 2 11.8232 2 12V13.3333C2 13.5101 2.07024 13.6797 2.19526 13.8047C2.32029 13.9298 2.48986 14 2.66667 14C3.72753 14 4.74495 13.5786 5.49509 12.8284C6.24524 12.0783 6.66667 11.0609 6.66667 10V3.33333C6.66667 2.97971 6.52619 2.64057 6.27614 2.39052C6.02609 2.14048 5.68696 2 5.33333 2H3.33333Z" stroke="url(#paint1_linear_21347_14909)" stroke-width="1.25" stroke-linecap="round" stroke-linejoin="round"/>
<defs>
<linearGradient id="paint0_linear_21347_14909" x1="9.33301" y1="8" x2="13.9997" y2="8" gradientUnits="userSpaceOnUse">
<stop stop-color="#4F39F6"/>
<stop offset="1" stop-color="#9810FA"/>
</linearGradient>
<linearGradient id="paint1_linear_21347_14909" x1="2" y1="8" x2="6.66667" y2="8" gradientUnits="userSpaceOnUse">
<stop stop-color="#4F39F6"/>
<stop offset="1" stop-color="#9810FA"/>
</linearGradient>
</defs>
</svg>
