<svg width="20" height="20" viewBox="0 0 20 20" fill="none" xmlns="http://www.w3.org/2000/svg">
<path d="M18.108 15.0004L11.4414 3.33368C11.296 3.07719 11.0852 2.86384 10.8305 2.71541C10.5757 2.56697 10.2862 2.48877 9.99136 2.48877C9.69654 2.48877 9.40699 2.56697 9.15226 2.71541C8.89753 2.86384 8.68673 3.07719 8.54136 3.33368L1.8747 15.0004C1.72777 15.2548 1.65072 15.5436 1.65137 15.8374C1.65202 16.1313 1.73035 16.4197 1.8784 16.6735C2.02646 16.9273 2.23899 17.1375 2.49444 17.2827C2.7499 17.4279 3.0392 17.503 3.33303 17.5003H16.6664C16.9588 17.5001 17.246 17.4228 17.4991 17.2764C17.7522 17.13 17.9624 16.9196 18.1085 16.6663C18.2545 16.413 18.3314 16.1257 18.3313 15.8333C18.3312 15.5408 18.2542 15.2536 18.108 15.0004Z" stroke="#E17100" stroke-width="1.25" stroke-linecap="round" stroke-linejoin="round"/>
<path d="M10 7.5V10.8333" stroke="#E17100" stroke-width="1.25" stroke-linecap="round" stroke-linejoin="round"/>
<path d="M10 14.1665H10.0083" stroke="#E17100" stroke-width="1.25" stroke-linecap="round" stroke-linejoin="round"/>
</svg>
