<svg width="450" height="129" viewBox="0 0 450 129" fill="none" xmlns="http://www.w3.org/2000/svg">
<path d="M367.967 110.923V34.6462H389.802L390.664 53.3204L384.918 54.9005C386.163 51.0699 388.317 47.5266 391.382 44.2706C394.542 40.9188 398.373 38.2374 402.874 36.2263C407.47 34.1195 412.498 33.066 417.957 33.066C424.852 33.066 430.598 34.4068 435.194 37.0882C439.887 39.7696 443.43 43.5523 445.824 48.4363C448.314 53.2246 449.559 58.779 449.559 65.0995V110.923H426.576V68.8343C426.576 65.4825 425.857 62.5617 424.421 60.0718C423.08 57.5819 421.117 55.6666 418.531 54.3259C416.041 52.9852 413.121 52.3627 409.769 52.4585C406.896 52.4585 404.31 52.9852 402.012 54.0386C399.713 54.9963 397.702 56.2891 395.979 57.9171C394.351 59.5451 393.106 61.3168 392.244 63.2321C391.478 65.1474 391.095 67.0627 391.095 68.978V110.923H379.603C376.251 110.923 373.617 110.923 371.702 110.923C369.787 110.923 368.542 110.923 367.967 110.923Z" fill="black"/>
<path d="M330.09 110.924V34.6468H353.218V110.924H330.09ZM341.582 23.7019C337.273 23.7019 333.921 22.6963 331.527 20.6853C329.133 18.5784 327.936 15.6097 327.936 11.7791C327.936 8.33157 329.133 5.50649 331.527 3.3039C333.921 1.1013 337.273 0 341.582 0C345.892 0 349.243 1.05342 351.637 3.16025C354.127 5.17131 355.372 8.04427 355.372 11.7791C355.372 15.3224 354.127 18.1954 351.637 20.398C349.148 22.6006 345.796 23.7019 341.582 23.7019Z" fill="black"/>
<path d="M264.371 112.216C256.518 112.216 249.623 110.54 243.686 107.188C237.748 103.741 233.104 99.0482 229.752 93.1108C226.4 87.1734 224.724 80.4219 224.724 72.8565C224.724 65.0995 226.4 58.2523 229.752 52.3148C233.199 46.2816 237.892 41.5891 243.829 38.2374C249.862 34.7898 256.901 33.066 264.945 33.066C269.446 33.066 273.612 33.6406 277.443 34.7898C281.273 35.939 284.673 37.4712 287.642 39.3865C290.611 41.2061 293.005 43.265 294.824 45.5634C296.739 47.8618 297.937 50.1601 298.415 52.4585L293.1 52.7458V34.6462H315.94V110.923H292.669V90.9561L297.553 91.9616C297.17 94.4515 296.021 96.8935 294.106 99.2876C292.191 101.682 289.749 103.884 286.78 105.895C283.811 107.811 280.412 109.343 276.581 110.492C272.75 111.641 268.68 112.216 264.371 112.216ZM270.404 92.8235C275.192 92.8235 279.262 92.0095 282.614 90.3815C286.062 88.6577 288.695 86.3115 290.515 83.3427C292.43 80.2783 293.388 76.7828 293.388 72.8565C293.388 68.7386 292.43 65.1953 290.515 62.2265C288.695 59.2578 286.062 56.9116 282.614 55.1878C279.262 53.464 275.192 52.6021 270.404 52.6021C265.807 52.6021 261.785 53.464 258.338 55.1878C254.986 56.9116 252.352 59.2578 250.437 62.2265C248.522 65.1953 247.564 68.7386 247.564 72.8565C247.564 76.7828 248.522 80.2783 250.437 83.3427C252.352 86.3115 254.986 88.6577 258.338 90.3815C261.785 92.0095 265.807 92.8235 270.404 92.8235Z" fill="black"/>
<path d="M0 72.8857C0 66.4909 0 63.2935 0.302783 60.6035C2.84322 38.0338 20.791 20.2189 43.5291 17.6973C46.2391 17.3967 49.4604 17.3967 55.9029 17.3967H85.6905V128.375H55.9029C49.4604 128.375 46.2391 128.375 43.5291 128.074C20.791 125.552 2.84322 107.738 0.302783 85.1679C0 82.4779 0 79.2805 0 72.8857Z" fill="#FF3B3B"/>
<path d="M93.0354 17.3967H96.2998C123.723 17.3967 137.435 17.3967 147.91 22.6942C157.123 27.354 164.614 34.7893 169.308 43.9347C174.645 54.3315 174.645 67.9418 174.645 95.1623V128.375H93.0354V17.3967Z" fill="#FF3B3B"/>
</svg>
