<svg width="194" height="43" viewBox="0 0 194 43" fill="none" xmlns="http://www.w3.org/2000/svg">
<g clip-path="url(#clip0_21476_37727)">
<path d="M30.8398 9.30918C28.7827 8.44397 26.6178 8.98487 24.8862 10.1756C24.2364 10.7165 23.1546 11.5829 21.8549 12.8826C20.8599 13.8015 19.8493 14.7036 18.8237 15.5883C18.7148 15.6972 18.6071 15.6972 18.4994 15.8049C18.4994 15.696 18.6083 15.5883 18.6083 15.4806C18.9326 14.6142 19.4735 13.4235 20.231 11.7995C21.0974 10.1756 21.5306 8.87718 21.8549 8.01076C22.5048 6.06252 22.3958 3.68108 20.7719 2.05714C18.6071 -0.216605 15.0361 0 13.0879 2.05714C11.5716 3.68108 11.4627 5.95361 12.0048 8.01076C12.2202 8.87718 12.7624 10.0679 13.6276 11.7995C14.3863 13.4235 14.9272 14.6142 15.2515 15.4806C15.2515 15.5883 15.3604 15.696 15.3604 15.8049C15.2515 15.696 15.1426 15.696 15.1426 15.5883C14.3863 15.0474 13.4122 14.0733 12.2202 12.8826C10.9218 11.5829 9.8388 10.7165 9.08129 10.1756C7.34966 8.98487 5.18482 8.33627 3.01877 9.30918C0.20532 10.6088 -0.767587 14.1822 0.639741 16.6713C1.72156 18.6196 3.8864 19.4848 5.94354 19.4848C6.80996 19.4848 8.10959 19.3771 9.94892 19.1605C11.6805 18.9439 12.9802 18.8362 13.9543 18.7273H14.2786L14.062 18.9451C13.3045 19.4848 12.1138 20.1346 10.5987 20.8933C8.9748 21.7585 7.78408 22.516 7.13426 23.0582C5.51033 24.3566 4.21191 26.1971 4.42851 28.4696C4.86051 31.6098 7.89177 33.5581 10.7064 33.0171C12.8725 32.5839 14.3875 30.7422 15.0361 28.794C15.3616 28.0364 15.5782 26.6303 15.9025 24.7886C16.2268 23.0582 16.4434 21.7585 16.769 20.8921C16.769 20.7832 16.8779 20.6755 16.8779 20.5678C16.8779 20.6767 16.9856 20.7844 16.9856 20.8921C17.201 21.7585 17.5265 23.0582 17.7431 24.7886C18.0674 26.6303 18.3917 27.9287 18.7172 28.794C19.367 30.7422 20.7743 32.5839 23.0469 33.0171C26.1858 33.6657 28.8916 31.2843 29.2183 28.4696C29.4337 26.3048 28.243 24.3566 26.619 23.0569C25.9692 22.516 24.7797 21.8674 23.1558 20.9998C21.6395 20.1346 20.4488 19.4848 19.6913 18.9439C19.5824 18.835 19.4747 18.835 19.367 18.7273H19.6913C20.5577 18.7273 21.9651 18.9451 23.6967 19.1605C25.536 19.3771 26.9445 19.4848 27.811 19.4848C29.8669 19.4848 32.0317 18.7273 33.2225 16.6713C34.8464 13.8567 33.4379 10.4999 30.8398 9.30918ZM56.4948 33.0159H39.5004V0.324303H55.5219C58.443 0.324303 60.8257 1.08182 62.665 2.59805C64.5056 4.11308 65.4797 6.17022 65.4797 8.76827C65.4797 12.3404 63.6404 14.7219 60.5002 15.8037C64.3967 16.9944 66.6716 19.7014 66.6716 23.7055C66.6716 29.5527 62.6662 33.0159 56.4948 33.0159ZM46.8613 13.2069H53.5724C56.6037 13.2069 58.2276 11.7995 58.2276 9.52578C58.2276 7.25203 56.7114 6.06131 53.6801 6.06131H46.8613V13.2069ZM53.6801 18.9427H46.8613V27.3866H53.6801C57.3612 27.3866 59.2018 25.8716 59.2018 23.1658C59.2018 20.5678 57.3612 18.9427 53.6801 18.9427ZM91.5679 33.0159H85.3977V30.6345C83.8826 32.8005 81.2834 33.8824 77.8201 33.8824C72.8406 33.8824 69.2684 31.5009 69.2684 26.9546C69.2684 21.9751 72.9495 19.5937 79.553 18.5107L85.0734 17.6442V17.3199C85.0734 15.1551 83.5583 13.9644 81.068 13.9644C80.0939 13.9644 79.1198 14.181 78.361 14.5053C76.7383 15.1551 75.8719 15.9126 73.8147 17.8608L69.4851 13.8555C72.7329 10.1756 76.4128 8.33506 81.068 8.33506C87.9957 8.33506 91.6768 11.6906 91.6768 17.1033V33.0159H91.5679ZM85.0734 22.2994L81.068 23.0569C77.4958 23.7068 75.8719 24.6809 75.8719 26.3048C75.8719 27.6032 77.0626 28.4709 79.2274 28.4709C82.3664 28.4709 85.0722 26.9546 85.0722 23.2735L85.0734 22.2994ZM115.6 14.2887L104.018 27.3878H115.494V33.0159H95.4668V27.8198L107.05 14.7219H96.1166V9.20148H115.494V14.2887H115.603H115.6ZM126.75 33.0159H119.821V9.09257H126.75V33.0159ZM138.981 33.0159H132.054V0.324303H138.981V33.0159ZM151.106 33.0159H144.178V9.09257H151.106V33.0159ZM123.285 7.57755C123.783 7.57755 124.276 7.47955 124.735 7.28914C125.195 7.09874 125.613 6.81966 125.964 6.46784C126.316 6.11602 126.595 5.69835 126.786 5.23867C126.976 4.779 127.074 4.28632 127.074 3.78877C127.074 3.29122 126.976 2.79855 126.786 2.33887C126.595 1.8792 126.316 1.46153 125.964 1.10971C125.613 0.757886 125.195 0.478807 124.735 0.288403C124.276 0.0979995 123.783 -7.41405e-09 123.285 0C122.281 1.49734e-08 121.317 0.399173 120.606 1.10971C119.896 1.82024 119.497 2.78393 119.497 3.78877C119.497 4.79362 119.896 5.75731 120.606 6.46784C121.317 7.17837 122.281 7.57755 123.285 7.57755ZM147.75 7.57755C148.247 7.57755 148.74 7.47955 149.2 7.28914C149.659 7.09874 150.077 6.81966 150.429 6.46784C150.781 6.11602 151.06 5.69835 151.25 5.23867C151.44 4.779 151.538 4.28632 151.538 3.78877C151.538 3.29122 151.44 2.79855 151.25 2.33887C151.06 1.8792 150.781 1.46153 150.429 1.10971C150.077 0.757886 149.659 0.478807 149.2 0.288403C148.74 0.0979995 148.247 -7.41405e-09 147.75 0C146.745 1.49734e-08 145.781 0.399173 145.071 1.10971C144.36 1.82024 143.961 2.78393 143.961 3.78877C143.961 4.79362 144.36 5.75731 145.071 6.46784C145.781 7.17837 146.745 7.57755 147.75 7.57755ZM172.756 33.0159H180.443L172.106 19.2694C175.138 16.3458 177.519 12.989 179.468 9.09257H172.865C170.572 13.0345 167.336 16.3451 163.447 18.7273V0.324303H156.519V33.0159H163.447V25.3295C164.53 24.8975 165.721 24.14 167.127 23.2735L172.756 33.0159Z" fill="#010101"/>
</g>
<defs>
<clipPath id="clip0_21476_37727">
<rect width="193.613" height="42.3529" fill="white"/>
</clipPath>
</defs>
</svg>
