<svg width="150" height="43" viewBox="0 0 150 43" fill="none" xmlns="http://www.w3.org/2000/svg">
<g clip-path="url(#clip0_21476_37707)">
<path d="M134.531 3.02515H114.881C106.532 3.02515 99.7646 9.79731 99.7646 18.1512C99.7646 26.5051 106.532 33.2772 114.881 33.2772H134.531C142.879 33.2772 149.647 26.5051 149.647 18.1512C149.647 9.79731 142.879 3.02515 134.531 3.02515Z" fill="white"/>
<path d="M123.285 10.5881V20.4654C123.285 22.3108 122.892 23.6873 122.121 24.5949C121.351 25.5175 120.111 25.9865 118.418 25.9865C116.725 25.9865 115.486 25.5327 114.715 24.5949C113.944 23.6873 113.551 22.3259 113.551 20.4654V10.5881H115.818V20.4654C115.818 21.5545 116.015 22.3713 116.408 22.9461C116.816 23.5209 117.481 23.8083 118.418 23.8083C119.355 23.8083 120.02 23.5058 120.428 22.9461C120.822 22.3713 121.033 21.5545 121.033 20.4654V10.5881H123.285ZM132.521 21.2217H128.243L127.412 25.7142H125.19L128.198 10.5881H132.597L135.62 25.7142H133.353L132.521 21.2217ZM128.636 19.1041H132.113L130.964 12.9175H129.8L128.636 19.1192V19.1041Z" fill="#8F8F8F"/>
<path d="M84.0442 15.4588C85.057 13.7042 87.7325 10.7244 92.3579 13.084C95.4416 14.6269 96.3636 18.0303 94.716 21.0252C92.0405 26.0773 83.8326 38.3294 83.8326 38.3294C83.1856 39.2894 82.3118 40.0748 81.2886 40.6157C80.2655 41.1566 79.1248 41.4364 77.9676 41.4302C75.7003 41.4302 73.5538 40.1899 72.2236 37.8151C71.498 36.5748 68.2179 30.6 68.2179 30.6H68.1121C66.4645 32.8689 58.967 41.642 49.2173 41.642C47.2627 41.6917 45.3193 41.3311 43.5125 40.5834C41.7057 39.8357 40.0755 38.7175 38.7268 37.3008C37.185 38.1328 28.7655 42.3529 19.1065 42.3529C10.0672 42.3529 0 37.6941 0 27.1815C0 15.2319 13.2566 13.916 18.396 15.3529L18.1844 4.94622C18.1844 2.16302 20.7541 0 24.0342 0C27.4353 0 30.2015 2.16302 30.2015 4.94622L30.0957 21.3277C30.0957 24.3227 27.1179 26.2739 24.4575 26.2739C22.5179 26.1666 20.6545 25.4818 19.1065 24.3076C16.8391 23.5966 12.9392 24.4286 12.9392 28.1345C12.9392 30.1916 14.6926 32.158 18.0786 32.158C23.6261 32.158 30.0957 29.4655 34.6153 24.9429C34.6153 22.8706 36.2781 11.7529 45.4081 11.7529C50.3358 11.7529 53.8276 15.0504 53.8276 20.0874C53.8276 25.2454 49.7161 29.6773 47.4638 31.2202V31.326C53.6311 31.326 59.8891 23.2941 62.1564 18.4387C62.2622 17.8336 62.9727 14.3244 66.4645 13.4924C68.4295 13.084 70.9992 13.2958 72.6317 16.1849C73.5538 17.9244 77.4688 26.4706 77.4688 26.4706H77.5595C77.5595 26.4706 81.2629 20.6168 84.0291 15.4588H84.0442ZM93.8998 33.2773C93.8917 32.2355 94.0906 31.2024 94.4849 30.2382C94.8792 29.2739 95.4609 28.3976 96.1964 27.6602C96.9319 26.9228 97.8065 26.339 98.7694 25.9426C99.7322 25.5462 100.764 25.3452 101.805 25.3513C102.846 25.3452 103.878 25.5462 104.841 25.9426C105.804 26.339 106.679 26.9228 107.414 27.6602C108.15 28.3976 108.732 29.2739 109.126 30.2382C109.52 31.2024 109.719 32.2355 109.711 33.2773C109.711 34.3126 109.506 35.3377 109.108 36.2933C108.71 37.2489 108.126 38.116 107.391 38.8446C106.656 39.5732 105.784 40.1487 104.825 40.538C103.866 40.9273 102.84 41.1226 101.805 41.1126C100.771 41.1226 99.7444 40.9273 98.7857 40.538C97.827 40.1487 96.9549 39.5732 96.2198 38.8446C95.4847 38.116 94.9011 37.2489 94.5029 36.2933C94.1047 35.3377 93.8997 34.3126 93.8998 33.2773Z" fill="#283CDC"/>
</g>
<defs>
<clipPath id="clip0_21476_37707">
<rect width="149.647" height="42.3529" fill="white"/>
</clipPath>
</defs>
</svg>
