<svg width="275" height="43" viewBox="0 0 275 43" fill="none" xmlns="http://www.w3.org/2000/svg">
<g clip-path="url(#clip0_21476_37717)">
<path d="M36.546 5.59375H0V42.3529H36.546V5.59375Z" fill="#1DCA6C"/>
<path d="M236.694 5.59375V42.3529H244.732V28.0079H265.275V42.3529H273.312V5.59375H236.694ZM265.275 19.9388H244.732V13.6629H265.275V19.9388Z" fill="black"/>
<path d="M62.0616 13.6629V19.9388H90.1945V42.3529H54.0234V34.2838H82.6033V28.0079H54.0234V5.59375H90.1945V13.6629H62.0616Z" fill="black"/>
<path d="M135.554 5.59375V28.0079H106.974V42.3529H98.9355V19.9388H127.516V13.6629H98.9355V5.59375H135.554Z" fill="black"/>
<path d="M180.463 19.9387H144.292V28.0077H180.463V19.9387Z" fill="black"/>
<path d="M180.463 34.2837H144.292V42.3528H180.463V34.2837Z" fill="black"/>
<path d="M180.463 5.59375H144.292V13.6629H180.463V5.59375Z" fill="black"/>
<path d="M203.296 34.2838H227.409V42.3529H190.792V5.59375H198.83V27.1113L218.479 5.59375H228.749L203.296 34.2838Z" fill="black"/>
<path d="M3.8383 31.9175L11.7652 39.1565L10.7743 30.6012L18.371 22.046L26.6283 30.6012L24.9768 39.1565L32.5735 31.9175V21.388L20.6831 0L10.7743 14.478V8.55521L3.17773 21.388L3.8383 31.9175Z" fill="black"/>
</g>
<defs>
<clipPath id="clip0_21476_37717">
<rect width="274.095" height="42.3529" fill="white"/>
</clipPath>
</defs>
</svg>
