<svg width="134" height="43" viewBox="0 0 134 43" fill="none" xmlns="http://www.w3.org/2000/svg">
<path d="M22.4894 11.5413L12.4701 33.5648H0.532227V11.5413H6.39458V28.3766H8.63293L15.8809 11.5413H22.4894Z" fill="#111111"/>
<path d="M32.4026 33.5647C29.0983 33.5647 26.4336 32.6118 24.4084 30.6C22.3833 28.5882 21.3174 26.0471 21.3174 22.8706C21.3174 19.3765 22.5964 16.4118 25.048 13.9765C27.4995 11.5412 30.5906 10.3765 34.108 10.3765C37.3056 10.3765 39.9703 11.3294 41.9955 13.3412C44.0207 15.3529 44.98 17.8941 44.98 20.8588C44.98 20.9647 44.98 21.6 44.8734 22.4471L44.7668 23.1882H27.4995C27.6061 24.7765 28.0324 26.0471 28.9917 27C29.8444 27.9529 31.1235 28.3765 32.5091 28.3765C34.108 28.3765 35.4936 27.9529 36.6661 27.1059C37.199 26.6823 37.6254 26.2588 37.9451 25.8353H44.5536C43.9141 27.2118 43.0614 28.4823 41.9955 29.6471C39.4374 32.1882 36.2397 33.5647 32.4026 33.5647ZM28.139 19.5882H38.6913C38.4781 18.3176 37.9451 17.3647 37.0924 16.6235C36.2397 15.8823 35.1739 15.4588 34.0014 15.4588C31.3367 15.4588 29.4181 16.8353 28.139 19.5882Z" fill="#111111"/>
<path d="M58.1962 33.5647C55.1052 33.5647 52.547 32.6118 50.4153 30.7059C48.3901 28.8 47.3242 26.2588 47.3242 22.9765C47.3242 19.4823 48.6033 16.5176 51.0548 14.0823C53.5063 11.6471 56.4908 10.3765 59.9016 10.3765C64.0586 10.3765 67.043 11.8588 68.855 14.7176C69.7077 16.0941 70.2407 17.4706 70.4539 19.0588H64.4849C64.2717 18.4235 63.952 17.7882 63.6322 17.2588C62.6729 16.0941 61.3939 15.4588 59.6885 15.4588C58.0896 15.4588 56.5974 16.2 55.4249 17.5765C54.2525 18.9529 53.5063 20.7529 53.5063 22.8706C53.5063 24.5647 53.9327 25.9412 54.892 26.8941C55.8513 27.8471 57.0237 28.3765 58.4094 28.3765C60.1148 28.3765 61.5005 27.8471 62.5663 26.6823C62.9927 26.2588 63.419 25.6235 63.7388 24.9882H69.9209C69.2814 26.5765 68.5353 27.9529 67.4694 29.2235C65.0179 32.0823 61.9268 33.5647 58.1962 33.5647Z" fill="#111111"/>
<path d="M72.4796 17.3647L73.4389 11.647H76.2102L77.0629 6.88232H83.1385L82.2857 11.647H88.4679L87.5086 17.3647H81.3265L79.4079 28.3764H85.9097L85.057 33.5647H72.373L75.2509 17.4706H72.4796V17.3647Z" fill="#111111"/>
<path d="M100.405 33.5648C97.1012 33.5648 94.4365 32.6118 92.4114 30.6001C90.2796 28.5883 89.3203 26.0471 89.3203 23.0824C89.3203 19.5883 90.5994 16.6236 93.1575 14.1883C95.7156 11.6471 98.8067 10.4824 102.324 10.4824C105.628 10.4824 108.293 11.4354 110.318 13.4471C112.45 15.4589 113.409 18.0001 113.409 20.9648C113.409 24.4589 112.13 27.4236 109.572 29.8589C107.014 32.2942 103.923 33.5648 100.405 33.5648ZM100.725 28.3765C102.537 28.3765 104.136 27.7412 105.415 26.3648C106.694 24.9883 107.334 23.1883 107.334 20.9648C107.334 19.2707 106.801 17.8942 105.841 16.9412C104.882 15.9883 103.603 15.4589 102.004 15.4589C100.192 15.4589 98.5935 16.0942 97.3144 17.4707C96.0354 18.8471 95.3958 20.6471 95.3958 22.8707C95.3958 24.5648 95.9288 25.9412 96.8881 26.8942C97.8474 27.8471 99.1264 28.3765 100.725 28.3765Z" fill="#111111"/>
<path d="M114.155 33.5648L117.992 11.5413H123.855L123.428 13.6589H124.068L125.88 11.5413H132.915L131.849 17.3648H127.479C124.921 17.3648 122.789 19.1648 122.363 21.6001L122.256 22.0236L120.124 33.4589H114.155V33.5648Z" fill="#111111"/>
</svg>
