<svg width="204" height="24" viewBox="0 0 204 24" fill="none" xmlns="http://www.w3.org/2000/svg">
<path d="M165.627 0.120329L160.131 0.936046V3.51694H165.627V0.120329Z" fill="#02302A"/>
<mask id="mask0_21347_14564" style="mask-type:luminance" maskUnits="userSpaceOnUse" x="0" y="0" width="22" height="19">
<path d="M0.0351562 0.581423H21.6901V18.5466H0.0351562V0.581423Z" fill="white"/>
</mask>
<g mask="url(#mask0_21347_14564)">
<g opacity="0.979996">
<path d="M21.681 8.88187C21.6708 8.59429 21.6275 8.32741 21.5575 8.07979C21.5575 8.07931 21.5572 8.07907 21.5572 8.07859C21.5305 7.95933 21.4631 7.57378 21.3368 7.38489C21.1884 7.16311 20.8918 6.76895 20.7682 6.62121C20.6447 6.47336 20.4716 6.30098 20.0019 5.9561C19.5469 5.62199 18.9608 5.4538 18.9246 5.44363H18.9243C18.9233 5.44339 18.9228 5.44315 18.9228 5.44315C18.5656 5.2929 18.3212 5.22927 18.3212 5.22927C18.9166 4.05228 18.8506 3.14517 18.5582 2.48114C18.5478 2.38077 18.3459 1.9652 18.1976 1.79282C18.0493 1.62032 17.7526 1.37402 17.6291 1.2508C17.5055 1.12759 17.3324 0.979856 16.9123 0.832001C16.5079 0.689888 15.8741 0.643353 15.8267 0.640123C15.825 0.639883 15.8239 0.639885 15.8239 0.639885C14.0459 0.390348 12.7845 1.26313 12.7845 1.26313C10.671 2.5565 11.4373 5.11849 11.7091 6.69514C11.9329 7.99282 11.2107 8.22238 10.9482 8.26281C10.8913 8.27167 10.8339 8.27167 10.7771 8.26281C10.5146 8.22238 9.79231 7.99282 10.016 6.69514C10.2879 5.11849 11.0542 2.5565 8.94084 1.26313C8.94084 1.26313 7.95205 0.578995 6.49157 0.595024C6.10712 0.531265 5.2206 0.708908 5.07249 0.782715C4.92425 0.856644 4.65227 0.905928 4.03437 1.30009C3.42607 1.68803 3.17126 2.46487 3.16358 2.48891C3.16334 2.48915 3.16333 2.48939 3.16333 2.48939C2.87407 3.15283 2.81106 4.05719 3.40411 5.22927C3.40411 5.22927 3.08004 5.3136 2.63306 5.51708C2.34439 5.59544 1.93342 5.80825 1.83452 5.88217C1.73561 5.9561 1.56253 6.10384 1.04354 6.52264C0.532582 6.93475 0.344259 7.59352 0.338618 7.61397C0.338378 7.61421 0.338378 7.61445 0.338378 7.61445C0.161818 8.0012 0.0511539 8.44393 0.0425119 8.9491C0.0425119 8.9491 -0.0285451 9.45882 0.271042 10.0913C0.271042 10.0913 0.271283 10.0917 0.271643 10.0925C0.280765 10.1176 0.433199 10.5218 0.672773 10.7845C0.919909 11.0554 1.01881 11.154 1.11771 11.2278C1.20617 11.2939 1.3963 11.3824 1.55341 11.4408C1.55365 11.4408 1.55389 11.441 1.55413 11.441C1.73633 11.5518 1.94002 11.658 2.16819 11.7575C2.16819 11.7575 1.73465 12.1559 1.65856 13.1289V13.1291C1.65724 13.1356 1.63671 13.2507 1.63671 13.3465V13.6914C1.63671 13.8391 1.69264 14.1967 1.72649 14.2767C1.78014 14.5783 1.86344 14.9102 1.98503 15.2748C1.98503 15.2748 2.09005 15.7343 2.29602 16.0801C2.30682 16.105 2.31775 16.1297 2.32879 16.1548C2.32879 16.1548 2.48974 16.5401 2.91296 16.9988L2.9132 16.9991C2.9198 17.0096 3.14161 17.3528 3.47252 17.5718C3.48369 17.5791 3.49557 17.5861 3.50733 17.5923C3.53902 17.6085 3.60828 17.6454 3.66361 17.6821C3.73779 17.7314 3.86549 17.8416 3.9602 17.8793C4.08382 17.9284 4.30383 18.0539 4.56453 18.1145V18.1142C5.12362 18.3353 5.80885 18.4892 6.64208 18.5074C10.0037 18.5814 10.4486 16.4627 10.2014 15.2557C9.95423 14.0486 9.85532 12.8907 9.8306 12.5212C9.80599 12.1529 9.7323 10.7603 10.8565 10.7734C10.8607 10.7734 10.8649 10.7731 10.8688 10.7734C11.993 10.7603 11.9193 12.1529 11.8946 12.5212C11.8699 12.8907 11.771 14.0486 11.5238 15.2557C11.3108 16.2955 11.6116 18.0115 13.8478 18.42C13.8478 18.42 13.8487 18.4202 13.851 18.4207C13.851 18.4207 13.8513 18.4209 13.8515 18.4207C13.9005 18.4333 14.4477 18.5677 15.1078 18.5444C15.8 18.5197 16.1095 18.4437 16.2266 18.42C16.3437 18.3965 17.0433 18.2318 17.2743 18.0679V18.0677C18.0335 17.7459 18.5488 17.3019 18.8812 16.9222L18.8815 16.9219C18.8817 16.9217 18.882 16.9217 18.8822 16.9212C18.9062 16.9033 19.2943 16.5999 19.5817 15.8838C19.8784 15.1448 19.9725 14.5186 19.9874 14.339V14.338C20.3381 12.4756 19.5571 11.7575 19.5571 11.7575C19.6908 11.6991 19.8164 11.6385 19.934 11.5757V11.5759C19.934 11.5759 20.2986 11.4496 20.4716 11.3264C20.6447 11.2033 20.7435 11.0801 20.8176 11.0062L21.2626 10.5627C21.3615 10.4641 21.4451 10.2632 21.485 10.1439C21.5344 9.99617 21.6333 9.70058 21.6509 9.49231V9.49207C21.6974 9.24744 21.692 9.06442 21.6865 8.9881C21.6839 8.95281 21.6822 8.91728 21.681 8.88187Z" fill="#F9709A"/>
</g>
</g>
<path d="M34.1011 5.37225C33.0091 5.37225 32.0732 5.62286 31.2933 6.12361C30.5134 6.62483 29.9414 7.32439 29.5774 8.22241V0.656542L24.0918 1.4597V18.7565H29.5774V12.4718C29.5774 11.5563 29.8114 10.8264 30.2793 10.2823C30.7473 9.73817 31.3538 9.46614 32.0992 9.46614C33.3471 9.46614 33.9711 10.235 33.9711 11.7721V18.7565H39.4567V12.0572C39.4567 9.93256 38.9887 8.28725 38.0527 7.12127C37.1168 5.95529 35.7995 5.37225 34.1011 5.37225Z" fill="#02302A"/>
<path d="M67.54 13.8606C67.0371 14.3703 66.4306 14.625 65.7201 14.625C64.9747 14.625 64.3508 14.3748 63.8483 13.8735C63.3454 13.3728 63.0943 12.7594 63.0943 12.0338C63.0943 11.3084 63.3454 10.6955 63.8483 10.1943C64.3508 9.69351 64.9747 9.44278 65.7201 9.44278C66.4306 9.44278 67.0371 9.68048 67.54 10.1554C68.0426 10.6308 68.294 11.2395 68.294 11.982C68.294 12.725 68.0426 13.3514 67.54 13.8606ZM68.346 8.35456C67.9126 7.28381 67.2971 6.51498 66.5001 6.04857C65.7026 5.58215 64.8794 5.349 64.0303 5.349C62.8343 5.349 61.751 5.62988 60.7806 6.19104C59.8097 6.75255 59.0428 7.52545 58.4798 8.51007C57.9162 9.4947 57.6348 10.6436 57.6348 11.9562C57.6348 13.2691 57.9162 14.4351 58.4798 15.4541C59.0428 16.4736 59.8097 17.2723 60.7806 17.8508C61.751 18.4298 62.8343 18.7189 64.0303 18.7189C65.0702 18.7189 65.9367 18.4946 66.6301 18.0452C67.3231 17.5962 67.878 16.9485 68.294 16.1019V18.7189H73.7536V5.34051H68.346V8.35456Z" fill="#02302A"/>
<path d="M105.258 5.37183C104.166 5.37183 103.23 5.62304 102.45 6.12307C101.67 6.62429 101.098 7.32409 100.975 8.22247V0.120327H95.8379V18.7566H100.735V12.4715C100.735 11.5564 100.969 10.8267 101.437 10.2824C101.905 9.73811 102.511 9.46656 103.256 9.46656C104.505 9.46656 105.128 10.2346 105.128 11.7717V18.7566H110.027V12.0576C110.027 9.9319 110.076 8.29903 109.14 7.1327C108.203 5.96756 106.957 5.37183 105.258 5.37183Z" fill="#02302A"/>
<path d="M121.23 11.6488C121.23 12.5639 120.996 13.2937 120.528 13.8379C120.06 14.3822 119.454 14.6538 118.708 14.6538C117.46 14.6538 116.837 13.8858 116.837 12.3486V5.36377H111.938V12.0627C111.938 14.1884 111.889 15.8213 112.825 16.9876C113.761 18.1528 115.008 18.7485 116.706 18.7485C117.799 18.7485 118.735 18.4973 119.515 17.9973C120.295 17.496 120.866 16.7962 120.99 15.8979V24H126.127V5.36377H121.23V11.6488Z" fill="#02302A"/>
<path d="M153.052 5.37223C151.909 5.37223 150.934 5.62284 150.128 6.12359C149.322 6.62482 148.624 7.31553 148.035 8.19644C147.723 7.36732 147.19 6.68965 146.436 6.16247C145.682 5.63576 144.768 5.37223 143.693 5.37223C142.601 5.37223 141.695 5.63134 140.977 6.14955C140.257 6.66776 139.707 7.41075 139.326 8.37779V5.36374H133.918V18.7565H139.404V12.4718C139.404 11.522 139.607 10.7835 140.015 10.2564C140.422 9.72966 140.963 9.46613 141.639 9.46613C142.176 9.46613 142.584 9.64748 142.861 10.0102C143.138 10.373 143.277 10.9605 143.277 11.7721V18.7565H148.763V12.4718C148.763 11.5563 148.966 10.8264 149.374 10.2823C149.781 9.73816 150.323 9.46613 150.999 9.46613C152.091 9.46613 152.637 10.235 152.637 11.7721V18.7565H158.122V12.0572C158.122 9.93254 157.68 8.28723 156.796 7.12126C155.912 5.95528 154.664 5.37223 153.052 5.37223Z" fill="#02302A"/>
<path d="M180.181 5.37223C179.089 5.37223 178.149 5.63134 177.36 6.14955C176.571 6.66776 175.978 7.41075 175.579 8.37779V5.36374H170.172V18.7421L175.658 18.7565V12.4718C175.658 11.5563 175.892 10.8264 176.359 10.2823C176.827 9.73816 177.434 9.46613 178.179 9.46613C179.427 9.46613 180.051 10.235 180.051 11.7721V18.7565H185.537V12.0572C185.537 9.93254 185.069 8.28723 184.133 7.12126C183.197 5.95528 181.88 5.37223 180.181 5.37223Z" fill="#02302A"/>
<path d="M76.1689 18.7566H81.6545V0.120674H76.1689V18.7566Z" fill="#02302A"/>
<path d="M166.812 14.5446C166.483 14.5446 166.201 14.437 165.967 14.2207C165.733 14.0049 165.616 13.6984 165.616 13.3009V5.3637H160.131V14.0522C160.131 14.9333 160.295 15.7281 160.625 16.4361C160.954 17.1445 161.478 17.7057 162.198 18.1203C162.917 18.5348 163.857 18.7421 165.018 18.7421C165.521 18.7421 166.075 18.6644 166.682 18.509C167.289 18.3535 167.783 18.1292 168.164 17.8352L167.878 14.2337C167.514 14.4409 167.159 14.5446 166.812 14.5446Z" fill="#02302A"/>
<path d="M46.5931 10.5185C46.679 9.25022 47.2107 8.31464 48.5889 8.31464C50.0666 8.31464 50.438 9.32331 50.4552 10.5185H46.5931ZM48.6075 5.35945C43.5568 5.35945 41.3438 8.31668 41.3438 12.1674C41.3438 15.5068 43.2721 18.7565 48.5124 18.7565C53.425 18.7565 54.9991 16.1241 55.5036 14.4258H50.4344C50.1739 15.0971 49.8233 15.5761 48.5996 15.5761C47.0783 15.5761 46.5415 14.286 46.5415 12.998H55.5737C55.6172 12.6496 55.6266 12.3301 55.6266 11.8999C55.6266 8.7106 53.9851 5.35945 48.6075 5.35945Z" fill="#02302A"/>
<path d="M197.45 14.1247C196.947 14.6344 196.341 14.8891 195.63 14.8891C194.885 14.8891 194.261 14.6388 193.758 14.1376C193.256 13.6369 193.004 13.0234 193.004 12.2979C193.004 11.5725 193.256 10.9596 193.758 10.4583C194.261 9.95758 194.885 9.70685 195.63 9.70685C196.341 9.70685 196.947 9.94454 197.45 10.4195C197.953 10.8948 198.204 11.5036 198.204 12.2461C198.204 12.9891 197.953 13.6155 197.45 14.1247ZM198.152 1.70053V8.51504C197.771 7.49596 197.186 6.75752 196.397 6.2996C195.608 5.84215 194.789 5.61307 193.94 5.61307C192.744 5.61307 191.661 5.89395 190.691 6.45511C189.72 7.01662 188.953 7.78951 188.39 8.77414C187.826 9.75877 187.545 10.9076 187.545 12.2203C187.545 13.5331 187.826 14.6991 188.39 15.7182C188.953 16.7376 189.72 17.5364 190.691 18.1149C191.661 18.6939 192.744 18.983 193.94 18.983C194.98 18.983 195.847 18.7587 196.54 18.3093C197.233 17.8603 197.788 17.2125 198.204 16.366V18.7757H203.638V0.897251L198.152 1.70053Z" fill="#02302A"/>
<path d="M92.2152 14.5219C91.7987 14.5219 91.4615 14.413 91.201 14.1977C90.9406 13.9812 90.8109 13.675 90.8109 13.2778V8.74287H93.8272V5.52976H90.8109V0.122747H85.3257V5.52976H83.6621V8.74287H85.3257V14.0291C85.3257 14.9095 85.4985 15.705 85.8454 16.4132C86.1923 17.1213 86.7504 17.6824 87.5222 18.0975C88.2928 18.5114 89.2938 18.7183 90.5253 18.7183C91.045 18.7183 91.6259 18.6406 92.2668 18.4851C92.9078 18.3307 93.4371 18.1058 93.8524 17.8116L93.4623 14.2109C93.047 14.4178 92.6305 14.5219 92.2152 14.5219Z" fill="#02302A"/>
</svg>
