<svg width="136" height="16" viewBox="0 0 136 16" fill="none" xmlns="http://www.w3.org/2000/svg">
<path d="M110.548 0.0803208L106.88 0.624132V2.34473H110.548V0.0803208Z" fill="white"/>
<mask id="mask0_21347_14951" style="mask-type:luminance" maskUnits="userSpaceOnUse" x="0" y="0" width="15" height="13">
<path d="M0.0234375 0.387483H14.4771V12.3643H0.0234375V0.387483Z" fill="white"/>
</mask>
<g mask="url(#mask0_21347_14951)">
<g opacity="0.979996">
<path d="M14.471 5.92126C14.4642 5.72954 14.4353 5.55162 14.3886 5.38654C14.3886 5.38622 14.3884 5.38606 14.3884 5.38574C14.3705 5.30623 14.3256 5.0492 14.2412 4.92327C14.1422 4.77542 13.9443 4.51264 13.8617 4.41415C13.7793 4.31558 13.6638 4.20066 13.3503 3.97074C13.0466 3.748 12.6554 3.63588 12.6312 3.6291H12.6311C12.6303 3.62894 12.63 3.62878 12.63 3.62878C12.3916 3.52861 12.2285 3.48619 12.2285 3.48619C12.6259 2.70153 12.5819 2.09679 12.3867 1.6541C12.3797 1.58719 12.245 1.31014 12.146 1.19522C12.047 1.08023 11.849 0.916022 11.7666 0.83388C11.684 0.751739 11.5685 0.653247 11.2881 0.554677C11.0182 0.459934 10.5952 0.428912 10.5635 0.426759C10.5624 0.4266 10.5617 0.4266 10.5617 0.4266C9.37497 0.260242 8.53299 0.842094 8.53299 0.842094C7.12237 1.70435 7.63381 3.41234 7.81526 4.46344C7.96459 5.32856 7.48256 5.4816 7.30735 5.50855C7.26938 5.51445 7.23108 5.51445 7.19319 5.50855C7.01799 5.4816 6.53587 5.32856 6.6852 4.46344C6.86665 3.41234 7.37809 1.70435 5.96755 0.842094C5.96755 0.842094 5.30759 0.386006 4.33278 0.396693C4.07618 0.354187 3.48447 0.472614 3.38561 0.52182C3.28667 0.571105 3.10514 0.603962 2.69272 0.866736C2.28671 1.12536 2.11663 1.64326 2.11151 1.65929C2.11135 1.65945 2.11135 1.65961 2.11135 1.65961C1.91828 2.1019 1.87622 2.7048 2.27205 3.48619C2.27205 3.48619 2.05575 3.54241 1.75741 3.67806C1.56474 3.7303 1.29044 3.87217 1.22442 3.92146C1.15841 3.97074 1.04289 4.06923 0.696483 4.34844C0.355445 4.62317 0.229749 5.06235 0.225984 5.07599C0.225824 5.07615 0.225824 5.07631 0.225824 5.07631C0.107978 5.33414 0.0341152 5.62929 0.0283471 5.96608C0.0283471 5.96608 -0.0190801 6.30589 0.18088 6.72752C0.18088 6.72752 0.181041 6.72784 0.181281 6.72832C0.18737 6.74507 0.289112 7.01454 0.449016 7.18967C0.613967 7.3703 0.67998 7.43602 0.745992 7.48522C0.805035 7.52924 0.931933 7.58826 1.0368 7.62718C1.03696 7.62718 1.03712 7.62734 1.03728 7.62734C1.15889 7.70118 1.29484 7.772 1.44714 7.83835C1.44714 7.83835 1.15777 8.10392 1.10698 8.7526V8.75276C1.1061 8.75707 1.0924 8.83379 1.0924 8.89766V9.12758C1.0924 9.22607 1.12973 9.46444 1.15232 9.5178C1.18813 9.71884 1.24373 9.94015 1.32489 10.1832C1.32489 10.1832 1.39498 10.4895 1.53245 10.7201C1.53967 10.7367 1.54696 10.7531 1.55433 10.7699C1.55433 10.7699 1.66176 11.0267 1.94423 11.3326L1.94439 11.3327C1.9488 11.3398 2.09685 11.5686 2.31772 11.7146C2.32517 11.7194 2.3331 11.7241 2.34095 11.7282C2.3621 11.739 2.40832 11.7636 2.44526 11.7881C2.49477 11.821 2.58 11.8944 2.64321 11.9195C2.72573 11.9523 2.87257 12.036 3.04658 12.0763V12.0762C3.41974 12.2235 3.8771 12.3262 4.43324 12.3383C6.67695 12.3876 6.97392 10.9751 6.80889 10.1705C6.64394 9.36571 6.57793 8.59382 6.56143 8.34747C6.545 8.10192 6.49581 7.17356 7.24615 7.18225C7.24895 7.18225 7.25175 7.1821 7.2544 7.18225C8.00473 7.17356 7.95554 8.10192 7.93904 8.34747C7.92253 8.59382 7.85652 9.36571 7.69157 10.1705C7.54937 10.8636 7.75013 12.0077 9.2427 12.28C9.2427 12.28 9.24334 12.2802 9.24487 12.2805C9.24487 12.2805 9.24503 12.2806 9.24519 12.2805C9.27787 12.2889 9.64311 12.3785 10.0837 12.3629C10.5457 12.3465 10.7523 12.2958 10.8304 12.28C10.9086 12.2644 11.3755 12.1546 11.5297 12.0453V12.0451C12.0365 11.8306 12.3804 11.5346 12.6023 11.2815L12.6025 11.2813C12.6026 11.2811 12.6028 11.2811 12.6029 11.2808C12.619 11.2689 12.878 11.0666 13.0698 10.5892C13.2679 10.0965 13.3307 9.67905 13.3406 9.55935V9.55871C13.5747 8.31709 13.0534 7.83835 13.0534 7.83835C13.1427 7.79944 13.2264 7.759 13.305 7.71713V7.71729C13.305 7.71729 13.5483 7.63308 13.6638 7.55094C13.7793 7.46887 13.8452 7.38673 13.8947 7.33745L14.1917 7.04182C14.2577 6.9761 14.3136 6.84212 14.3402 6.76261C14.3732 6.66412 14.4392 6.46706 14.4509 6.32822V6.32806C14.482 6.16497 14.4784 6.04295 14.4747 5.99207C14.4729 5.96855 14.4718 5.94486 14.471 5.92126Z" fill="#F9709A"/>
</g>
</g>
<path d="M22.7608 3.58155C22.0319 3.58155 21.4073 3.74862 20.8867 4.08245C20.3662 4.4166 19.9844 4.88298 19.7414 5.48166V0.437745L16.0801 0.973184V12.5044H19.7414V8.3146C19.7414 7.70428 19.8977 7.21764 20.2099 6.85494C20.5223 6.49216 20.9271 6.31081 21.4246 6.31081C22.2575 6.31081 22.674 6.82336 22.674 7.84814V12.5044H26.3354V8.03819C26.3354 6.62176 26.0231 5.52488 25.3983 4.74757C24.7736 3.97025 23.8944 3.58155 22.7608 3.58155Z" fill="white"/>
<path d="M45.079 9.24063C44.7434 9.58044 44.3386 9.75023 43.8644 9.75023C43.3668 9.75023 42.9504 9.58339 42.615 9.24924C42.2794 8.91541 42.1118 8.50646 42.1118 8.02277C42.1118 7.53917 42.2794 7.13054 42.615 6.79639C42.9504 6.46256 43.3668 6.2954 43.8644 6.2954C44.3386 6.2954 44.7434 6.45386 45.079 6.77047C45.4145 7.08739 45.5823 7.49324 45.5823 7.98824C45.5823 8.48357 45.4145 8.90114 45.079 9.24063ZM45.617 5.56992C45.3277 4.85608 44.9169 4.34353 44.3849 4.03259C43.8527 3.72165 43.3032 3.56622 42.7365 3.56622C41.9382 3.56622 41.2151 3.75347 40.5674 4.12757C39.9194 4.50192 39.4076 5.01718 39.0318 5.6736C38.6556 6.33001 38.4678 7.09593 38.4678 7.97102C38.4678 8.84627 38.6556 9.62359 39.0318 10.303C39.4076 10.9826 39.9194 11.5151 40.5674 11.9008C41.2151 12.2867 41.9382 12.4795 42.7365 12.4795C43.4306 12.4795 44.0089 12.33 44.4717 12.0303C44.9343 11.731 45.3046 11.2992 45.5823 10.7348V12.4795H49.2263V3.56055H45.617V5.56992Z" fill="white"/>
<path d="M70.2545 3.58123C69.5255 3.58123 68.9006 3.7487 68.3799 4.08206C67.8591 4.41621 67.4778 4.88274 67.3953 5.48166V0.0802279H63.9668V12.5044H67.2351V8.31436C67.2351 7.70428 67.3913 7.2178 67.7037 6.85494C68.0162 6.49208 68.4207 6.31105 68.9182 6.31105C69.7514 6.31105 70.1672 6.82304 70.1672 7.84782V12.5044H73.4371V8.03843C73.4371 6.62128 73.4699 5.5327 72.845 4.75514C72.2201 3.97838 71.3881 3.58123 70.2545 3.58123Z" fill="white"/>
<path d="M80.9152 7.76587C80.9152 8.37595 80.759 8.86243 80.4466 9.22529C80.1341 9.58815 79.7296 9.76918 79.2321 9.76918C78.3989 9.76918 77.9831 9.25718 77.9831 8.2324V3.57583H74.7132V8.0418C74.7132 9.45895 74.6804 10.5475 75.3053 11.3251C75.9302 12.1018 76.7622 12.499 77.8958 12.499C78.6248 12.499 79.2497 12.3315 79.7704 11.9982C80.2912 11.664 80.6725 11.1975 80.755 10.5986V16H84.1835V3.57583H80.9152V7.76587Z" fill="white"/>
<path d="M102.155 3.58155C101.392 3.58155 100.741 3.74862 100.203 4.08246C99.6651 4.4166 99.1993 4.87708 98.8061 5.46435C98.5979 4.91161 98.2422 4.45983 97.7389 4.10837C97.2358 3.75724 96.6255 3.58155 95.9083 3.58155C95.1795 3.58155 94.5749 3.75429 94.095 4.09976C93.6148 4.44524 93.2474 4.94056 92.9931 5.58525V3.57589H89.3838V12.5044H93.0452V8.3146C93.0452 7.68139 93.181 7.18909 93.4529 6.83764C93.7246 6.4865 94.0863 6.31081 94.5374 6.31081C94.8959 6.31081 95.1678 6.43171 95.353 6.67351C95.5379 6.91539 95.6307 7.30704 95.6307 7.84814V12.5044H99.292V8.3146C99.292 7.70428 99.4279 7.21765 99.6999 6.85494C99.9714 6.49216 100.333 6.31081 100.784 6.31081C101.513 6.31081 101.878 6.82336 101.878 7.84814V12.5044H105.539V8.03819C105.539 6.62176 105.244 5.52488 104.654 4.74757C104.064 3.97025 103.231 3.58155 102.155 3.58155Z" fill="white"/>
<path d="M120.263 3.58155C119.534 3.58155 118.906 3.75429 118.38 4.09976C117.853 4.44524 117.457 4.94056 117.191 5.58525V3.57589H113.582V12.4948L117.243 12.5044V8.3146C117.243 7.70428 117.4 7.21765 117.712 6.85494C118.024 6.49216 118.429 6.31081 118.927 6.31081C119.76 6.31081 120.176 6.82336 120.176 7.84814V12.5044H123.837V8.03819C123.837 6.62176 123.525 5.52488 122.9 4.74757C122.276 3.97025 121.396 3.58155 120.263 3.58155Z" fill="white"/>
<path d="M50.8389 12.5044H54.5002V0.0804596H50.8389V12.5044Z" fill="white"/>
<path d="M111.339 9.6963C111.12 9.6963 110.932 9.62453 110.776 9.48034C110.619 9.33647 110.541 9.13215 110.541 8.86715V3.57569H106.88V9.36805C106.88 9.95541 106.99 10.4853 107.21 10.9573C107.429 11.4296 107.779 11.8037 108.259 12.0801C108.739 12.3564 109.367 12.4946 110.142 12.4946C110.477 12.4946 110.848 12.4428 111.253 12.3392C111.657 12.2355 111.987 12.086 112.242 11.89L112.051 9.48903C111.808 9.62716 111.571 9.6963 111.339 9.6963Z" fill="white"/>
<path d="M31.0984 7.01237C31.1557 6.16687 31.5106 5.54315 32.4305 5.54315C33.4168 5.54315 33.6647 6.21559 33.6762 7.01237H31.0984ZM32.443 3.57302C29.0718 3.57302 27.5947 5.5445 27.5947 8.11164C27.5947 10.3379 28.8818 12.5044 32.3794 12.5044C35.6583 12.5044 36.709 10.7494 37.0457 9.61723H33.6623C33.4884 10.0648 33.2544 10.3841 32.4377 10.3841C31.4223 10.3841 31.064 9.52408 31.064 8.66542H37.0925C37.1216 8.43311 37.1279 8.2201 37.1279 7.93332C37.1279 5.80712 36.0322 3.57302 32.443 3.57302Z" fill="white"/>
<path d="M131.788 9.41641C131.452 9.75622 131.048 9.92601 130.573 9.92601C130.076 9.92601 129.659 9.75917 129.324 9.42502C128.988 9.09119 128.821 8.68224 128.821 8.19856C128.821 7.71496 128.988 7.30632 129.324 6.97217C129.659 6.63834 130.076 6.47118 130.573 6.47118C131.048 6.47118 131.452 6.62965 131.788 6.94625C132.123 7.26318 132.291 7.66902 132.291 8.16402C132.291 8.65935 132.123 9.07692 131.788 9.41641ZM132.257 1.13363V5.67664C132.002 4.99725 131.611 4.50496 131.085 4.19968C130.559 3.89472 130.012 3.742 129.445 3.742C128.647 3.742 127.924 3.92925 127.276 4.30335C126.628 4.6777 126.116 5.19296 125.741 5.84938C125.365 6.50579 125.177 7.27171 125.177 8.1468C125.177 9.02205 125.365 9.79937 125.741 10.4788C126.116 11.1584 126.628 11.6909 127.276 12.0765C127.924 12.4625 128.647 12.6553 129.445 12.6553C130.14 12.6553 130.718 12.5057 131.181 12.2061C131.643 11.9068 132.014 11.475 132.291 10.9106V12.5171H135.918V0.598117L132.257 1.13363Z" fill="white"/>
<path d="M61.5496 9.68139C61.2716 9.68139 61.0465 9.60882 60.8727 9.46527C60.6988 9.32093 60.6123 9.11677 60.6123 8.852V5.8287H62.6255V3.68663H60.6123V0.081953H56.9512V3.68663H55.8408V5.8287H56.9512V9.35283C56.9512 9.93978 57.0665 10.4701 57.2981 10.9422C57.5296 11.4143 57.9021 11.7884 58.4172 12.0651C58.9316 12.341 59.5997 12.479 60.4216 12.479C60.7685 12.479 61.1563 12.4272 61.5841 12.3235C62.0119 12.2206 62.3652 12.0707 62.6424 11.8745L62.382 9.47405C62.1048 9.61201 61.8268 9.68139 61.5496 9.68139Z" fill="white"/>
</svg>
